# xmcd
#
# Track frame offsets: 
#        150
#        24473
#        37146
#        51305
#        78897
#        93024
#        110852
#        127804
#        141598
#        161984
#
# Disc length: 2420 seconds
#
# Revision: 28
# Processed by: cddbd v1.5.2PL0 Copyright (c) Steve Scherf et al.
# Submitted via: ExactAudioCopy v1.3
#
DISCID=8809720a
DTITLE=Stevie Ray Vaughan and Double Trouble - Soul to Soul [MFSL rema
DTITLE=ster, SACD hybrid]
DYEAR=1985
DGENRE=Blues
TTITLE0=Say What!
TTITLE1=Lookin' out the Window
TTITLE2=Look at Little Sister
TTITLE3=Ain't Gone 'n' Give Up on Love
TTITLE4=Gone Home
TTITLE5=Change It
TTITLE6=You'll Be Mine
TTITLE7=Empty Arms
TTITLE8=Come On (Part III)
TTITLE9=Life Without You
EXTD=YEAR: 1985
EXTT0=
EXTT1=
EXTT2=
EXTT3=
EXTT4=
EXTT5=
EXTT6=
EXTT7=
EXTT8=
EXTT9=
PLAYORDER=
